<svg id="Capa_1" data-name="Capa 1" xmlns="http://www.w3.org/2000/svg" viewBox="0 0 16 16"><defs><style>.cls-1{fill:#fff;}</style></defs><title>explorar</title><path class="cls-1" d="M10.62,8.63l-.9-.9a3.18,3.18,0,0,0,.12,4.52l1.37,1.38s2.14-2.27-.59-5" transform="translate(-2 0)"/><path class="cls-1" d="M9.57,11.28a1.06,1.06,0,1,1,1.49,0,1.05,1.05,0,0,1-1.49,0" transform="translate(-2 0)"/><path class="cls-1" d="M10,10.89a.5.5,0,0,1,0-.68.48.48,0,1,1,0,.68" transform="translate(-2 0)"/><path class="cls-1" d="M9.38,7.37l.9.9a3.18,3.18,0,0,0-.12-4.52L8.79,2.37s-2.14,2.27.59,5" transform="translate(-2 0)"/><path class="cls-1" d="M10.43,4.72a1.06,1.06,0,1,1-1.49,0,1.05,1.05,0,0,1,1.49,0" transform="translate(-2 0)"/><path class="cls-1" d="M10.05,5.11a.5.5,0,0,1,0,.68.48.48,0,1,1,0-.68" transform="translate(-2 0)"/><path class="cls-1" d="M9.37,8.62l.9-.9a3.18,3.18,0,0,0-4.52.12L4.37,9.21s2.27,2.14,5-.59" transform="translate(-2 0)"/><path class="cls-1" d="M6.72,7.57a1.06,1.06,0,1,1,0,1.49,1.05,1.05,0,0,1,0-1.49" transform="translate(-2 0)"/><path class="cls-1" d="M7.11,8a.5.5,0,0,1,.68,0,.48.48,0,1,1-.68,0" transform="translate(-2 0)"/><path class="cls-1" d="M6.72,7.57a1.06,1.06,0,1,1,0,1.49,1.05,1.05,0,0,1,0-1.49" transform="translate(-2 0)"/><path class="cls-1" d="M7.11,8a.5.5,0,0,1,.68,0,.48.48,0,1,1-.68,0" transform="translate(-2 0)"/><path class="cls-1" d="M13,11,10.62,8.63c2.73,2.73.59,5,.59,5L13.59,16s2.13-2.27-.6-5" transform="translate(-2 0)"/><path class="cls-1" d="M7,5,9.38,7.37c-2.73-2.73-.59-5-.59-5L6.41,0S4.28,2.27,7,5" transform="translate(-2 0)"/><path class="cls-1" d="M7,11,9.37,8.62c-2.73,2.73-5,.59-5,.59L2,11.59s2.27,2.13,5-.6" transform="translate(-2 0)"/><path class="cls-1" d="M13,5,10.63,7.38c2.73-2.73,5-.59,5-.59L18,4.41S15.73,2.28,13,5" transform="translate(-2 0)"/><path class="cls-1" d="M10.63,7.38l-.9.9a3.18,3.18,0,0,0,4.52-.12l1.38-1.37s-2.27-2.14-5,.59" transform="translate(-2 0)"/><path class="cls-1" d="M13.28,8.43a1.06,1.06,0,1,1,0-1.49,1.05,1.05,0,0,1,0,1.49" transform="translate(-2 0)"/><path class="cls-1" d="M12.89,8.05a.5.5,0,0,1-.68,0,.48.48,0,1,1,.68,0" transform="translate(-2 0)"/></svg>