<?xml version="1.0" encoding="UTF-8"?>
<svg width="24px" height="24px" viewBox="0 0 24 24" version="1.1" xmlns="http://www.w3.org/2000/svg" xmlns:xlink="http://www.w3.org/1999/xlink">
    <!-- Generator: Sketch 55.1 (78136) - https://sketchapp.com -->
    <title>Icon/opc</title>
    <desc>Created with Sketch.</desc>
    <g id="Icon/opc" stroke="none" stroke-width="1" fill="none" fill-rule="evenodd">
        <path d="M12,12 C12,9 14.5,6.5 17.5,6.5 C20.5,6.5 23,9 23,12 L12,12 Z M12,12 C12,15 9.5,17.5 6.5,17.5 C3.5,17.5 1,15 1,12 L12,12 Z M12,12 C9,12 6.5,9.5 6.5,6.5 C6.5,3.5 9,1 12,1 L12,12 Z M12,12 C15,12 17.5,14.5 17.5,17.5 C17.5,20.5 15,23 12,23 L12,12 Z" id="Shape" fill="#000000"></path>
    </g>
</svg>